<?xml version="1.0" encoding="UTF-8" standalone="no"?><svg xmlns="http://www.w3.org/2000/svg" xmlns:xlink="http://www.w3.org/1999/xlink" contentScriptType="application/ecmascript" contentStyleType="text/css" height="496px" preserveAspectRatio="none" style="width:445px;height:496px;" version="1.1" viewBox="0 0 445 496" width="445px" zoomAndPan="magnify"><defs><filter height="300%" id="f1ed08gasjt8eb" width="300%" x="-1" y="-1"><feGaussianBlur result="blurOut" stdDeviation="2.0"/><feColorMatrix in="blurOut" result="blurOut2" type="matrix" values="0 0 0 0 0 0 0 0 0 0 0 0 0 0 0 0 0 0 .4 0"/><feOffset dx="4.0" dy="4.0" in="blurOut2" result="blurOut3"/><feBlend in="SourceGraphic" in2="blurOut3" mode="normal"/></filter></defs><g><rect fill="none" height="30.2719" style="stroke: none; stroke-width: 1.0;" width="108" x="142" y="15"/><text fill="#000000" font-family="sans-serif" font-size="14" font-weight="bold" lengthAdjust="spacingAndGlyphs" textLength="98" x="147" y="36.2399">数据结构与算法</text><rect fill="#FEFECE" filter="url(#f1ed08gasjt8eb)" height="40.2719" rx="12.5" ry="12.5" style="stroke: #A80036; stroke-width: 1.5;" width="118" x="10" y="249.2916"/><text fill="#000000" font-family="sans-serif" font-size="14" lengthAdjust="spacingAndGlyphs" textLength="98" x="20" y="275.5315">数据结构与算法</text><rect fill="#FEFECE" filter="url(#f1ed08gasjt8eb)" height="40.2719" rx="12.5" ry="12.5" style="stroke: #A80036; stroke-width: 1.5;" width="76" x="178" y="181.8157"/><text fill="#000000" font-family="sans-serif" font-size="14" lengthAdjust="spacingAndGlyphs" textLength="56" x="188" y="208.0557">数据结构</text><rect fill="#FEFECE" filter="url(#f1ed08gasjt8eb)" height="40.2719" rx="12.5" ry="12.5" style="stroke: #A80036; stroke-width: 1.5;" width="62" x="304" y="61.2719"/><text fill="#000000" font-family="sans-serif" font-size="14" lengthAdjust="spacingAndGlyphs" textLength="42" x="314" y="87.5118">顺序表</text><path d="M254,201.9517 L264,201.9517 C279,201.9517 279,81.4079 294,81.4079 L304,81.4079 " fill="none" style="stroke: #A80036; stroke-width: 1.0;"/><rect fill="#FEFECE" filter="url(#f1ed08gasjt8eb)" height="40.2719" rx="12.5" ry="12.5" style="stroke: #A80036; stroke-width: 1.5;" width="48" x="304" y="121.5438"/><text fill="#000000" font-family="sans-serif" font-size="14" lengthAdjust="spacingAndGlyphs" textLength="28" x="314" y="147.7838">链表</text><path d="M254,201.9517 L264,201.9517 C279,201.9517 279,141.6798 294,141.6798 L304,141.6798 " fill="none" style="stroke: #A80036; stroke-width: 1.0;"/><rect fill="#FEFECE" filter="url(#f1ed08gasjt8eb)" height="40.2719" rx="12.5" ry="12.5" style="stroke: #A80036; stroke-width: 1.5;" width="34" x="304" y="181.8157"/><text fill="#000000" font-family="sans-serif" font-size="14" lengthAdjust="spacingAndGlyphs" textLength="14" x="314" y="208.0557">栈</text><path d="M254,201.9517 L264,201.9517 C279,201.9517 279,201.9517 294,201.9517 L304,201.9517 " fill="none" style="stroke: #A80036; stroke-width: 1.0;"/><rect fill="#FEFECE" filter="url(#f1ed08gasjt8eb)" height="40.2719" rx="12.5" ry="12.5" style="stroke: #A80036; stroke-width: 1.5;" width="48" x="304" y="242.0876"/><text fill="#000000" font-family="sans-serif" font-size="14" lengthAdjust="spacingAndGlyphs" textLength="28" x="314" y="268.3276">队列</text><path d="M254,201.9517 L264,201.9517 C279,201.9517 279,262.2236 294,262.2236 L304,262.2236 " fill="none" style="stroke: #A80036; stroke-width: 1.0;"/><rect fill="#FEFECE" filter="url(#f1ed08gasjt8eb)" height="40.2719" rx="12.5" ry="12.5" style="stroke: #A80036; stroke-width: 1.5;" width="34" x="304" y="302.3596"/><text fill="#000000" font-family="sans-serif" font-size="14" lengthAdjust="spacingAndGlyphs" textLength="14" x="314" y="328.5995">树</text><path d="M254,201.9517 L264,201.9517 C279,201.9517 279,322.4955 294,322.4955 L304,322.4955 " fill="none" style="stroke: #A80036; stroke-width: 1.0;"/><path d="M128,269.4275 L138,269.4275 C153,269.4275 153,201.9517 168,201.9517 L178,201.9517 " fill="none" style="stroke: #A80036; stroke-width: 1.0;"/><rect fill="#FEFECE" filter="url(#f1ed08gasjt8eb)" height="40.2719" rx="12.5" ry="12.5" style="stroke: #A80036; stroke-width: 1.5;" width="48" x="178" y="399.9714"/><text fill="#000000" font-family="sans-serif" font-size="14" lengthAdjust="spacingAndGlyphs" textLength="28" x="188" y="426.2113">算法</text><rect fill="#FEFECE" filter="url(#f1ed08gasjt8eb)" height="40.2719" rx="12.5" ry="12.5" style="stroke: #A80036; stroke-width: 1.5;" width="48" x="276" y="362.6315"/><text fill="#000000" font-family="sans-serif" font-size="14" lengthAdjust="spacingAndGlyphs" textLength="28" x="286" y="388.8714">搜索</text><text fill="#000000" font-family="sans-serif" font-size="14" lengthAdjust="spacingAndGlyphs" textLength="56" x="377" y="388.8714">二分搜索</text><path d="M324,382.7674 L334,382.7674 C349,382.7674 349,382.7674 364,382.7674 L374,382.7674 " fill="none" style="stroke: #A80036; stroke-width: 1.0;"/><path d="M226,420.1073 L236,420.1073 C251,420.1073 251,382.7674 266,382.7674 L276,382.7674 " fill="none" style="stroke: #A80036; stroke-width: 1.0;"/><rect fill="#FEFECE" filter="url(#f1ed08gasjt8eb)" height="40.2719" rx="12.5" ry="12.5" style="stroke: #A80036; stroke-width: 1.5;" width="48" x="276" y="422.9034"/><text fill="#000000" font-family="sans-serif" font-size="14" lengthAdjust="spacingAndGlyphs" textLength="28" x="286" y="449.1433">排序</text><text fill="#000000" font-family="sans-serif" font-size="14" lengthAdjust="spacingAndGlyphs" textLength="56" x="377" y="415.7354">冒泡排序</text><path d="M324,443.0393 L334,443.0393 C349,443.0393 349,409.6315 364,409.6315 L374,409.6315 " fill="none" style="stroke: #A80036; stroke-width: 1.0;"/><text fill="#000000" font-family="sans-serif" font-size="14" lengthAdjust="spacingAndGlyphs" textLength="56" x="377" y="438.0074">选择排序</text><path d="M324,443.0393 L334,443.0393 C349,443.0393 349,431.9034 364,431.9034 L374,431.9034 " fill="none" style="stroke: #A80036; stroke-width: 1.0;"/><text fill="#000000" font-family="sans-serif" font-size="14" lengthAdjust="spacingAndGlyphs" textLength="56" x="377" y="460.2793">插入排序</text><path d="M324,443.0393 L334,443.0393 C349,443.0393 349,454.1753 364,454.1753 L374,454.1753 " fill="none" style="stroke: #A80036; stroke-width: 1.0;"/><text fill="#000000" font-family="sans-serif" font-size="14" lengthAdjust="spacingAndGlyphs" textLength="56" x="377" y="482.5512">快速排序</text><path d="M324,443.0393 L334,443.0393 C349,443.0393 349,476.4472 364,476.4472 L374,476.4472 " fill="none" style="stroke: #A80036; stroke-width: 1.0;"/><path d="M226,420.1073 L236,420.1073 C251,420.1073 251,443.0393 266,443.0393 L276,443.0393 " fill="none" style="stroke: #A80036; stroke-width: 1.0;"/><path d="M128,269.4275 L138,269.4275 C153,269.4275 153,420.1073 168,420.1073 L178,420.1073 " fill="none" style="stroke: #A80036; stroke-width: 1.0;"/><!--MD5=[b6a61df6bc7e1e0082242e3986e5eda6]
@startmindmap
title 数据结构与算法
* 数据结构与算法
** 数据结构
*** 顺序表
*** 链表
*** 栈
*** 队列
*** 树
** 算法
*** 搜索
****_ 二分搜索
*** 排序
****_ 冒泡排序
****_ 选择排序
****_ 插入排序
****_ 快速排序
@endmindmap

PlantUML version 1.2020.06(Sun Apr 05 20:38:32 CST 2020)
(GPL source distribution)
Java Runtime: OpenJDK Runtime Environment
JVM: OpenJDK 64-Bit Server VM
Java Version: 11.0.7+10-post-Ubuntu-2ubuntu219.10
Operating System: Linux
Default Encoding: UTF-8
Language: en
Country: US
--></g></svg>